# xmcd CD database file
# Copyright (C) 1995-1998 Ti Kan
#
# Track frame offsets:
#	150
#	69135
#	87082
#	114827
#	144915
#	160752
#	181577
#	198475
#	225892
#	284380
#
# Disc length: 4095 seconds
#
# Revision: 1
# Processed by: cddbd v1.4b41PL2 Copyright (c) Steve Scherf et al.
# Submitted via: CDex 1.40Beta3
#
DISCID=6e0ffd0a
DTITLE=Blues Traveller - Blues from the Mitten State
DYEAR=1993
DGENRE=Blues
TTITLE0=Sweet Talkin' Hippie
TTITLE1=Save his Soul
TTITLE2=But Anyway
TTITLE3=Trina Magna
TTITLE4=Ride you
TTITLE5=Letter for a friend
TTITLE6=Optimistic thought
TTITLE7=Believe me
TTITLE8=Alone
TTITLE9=Run-Around
EXTD=YEAR: 1993 ID3G:   0
EXTT0=
EXTT1=
EXTT2=
EXTT3=
EXTT4=
EXTT5=
EXTT6=
EXTT7=
EXTT8=
EXTT9=
PLAYORDER=
